<svg width="64" height="64" viewBox="0 0 64 64" fill="none" xmlns="http://www.w3.org/2000/svg">
<g clip-path="url(#clip0_1_2)">
<path d="M0 32C0 14.3269 14.3269 0 32 0V0C49.6731 0 64 14.3269 64 32V32C64 49.6731 49.6731 64 32 64V64C14.3269 64 0 49.6731 0 32V32Z" fill="#201D21"/>
<path d="M20.3463 47.6347C16.4577 47.0039 13.1201 44.6766 11.0674 41.7741C6.72907 35.6731 6.72579 29.4612 6.72579 29.4612C6.72579 29.4612 6.07874 35.6601 10.2872 42.2975C12.3344 45.5064 15.8574 48.1538 20.1442 48.8655C22.0715 49.1819 24.1998 49.1864 26.5368 48.8462C33.3343 47.8566 37.1763 44.3681 41.0226 41.0314C42.9383 39.3696 44.8505 37.7492 47.1309 36.4537C49.4113 35.1583 52.0599 34.1798 55.4898 33.807C58.4121 33.4882 61.434 33.1338 61.434 33.1338C61.434 33.1338 58.473 32.2295 55.355 32.5671C46.7001 33.5078 42.5631 38.1935 37.9018 42.0644C34.8033 44.6375 31.4969 46.8637 26.3572 47.612C24.1287 47.9364 22.1304 47.9277 20.3463 47.6347Z" fill="#66769C"/>
<path d="M20.3966 43.0009C16.964 41.6989 14.6251 38.4769 13.8228 35.2544C12.1195 28.4491 15.1866 23.5113 15.1866 23.5113C15.1866 23.5113 11.514 28.1144 12.915 35.4537C13.597 38.9962 16.0326 42.6331 19.9479 44.1647C21.6855 44.8347 23.7105 45.1613 26.0193 45.0669C31.1945 44.8551 34.5426 41.5971 38.3516 38.3666C42.1643 35.133 46.4764 31.8463 53.8049 31.0676C57.4601 30.6776 61.2901 30.5012 61.2901 30.5012C61.2901 30.5012 57.5834 29.4134 53.6732 29.8273C44.4691 30.8054 39.6898 35.645 35.306 39.3233C32.3921 41.7684 29.7128 43.6674 25.9683 43.8207C23.8076 43.9091 21.9569 43.6026 20.3966 43.0009Z" fill="#66769C"/>
<path d="M32.5553 3.2337C18.879 3.2336 7.79632 14.3163 7.79642 27.9926C7.79632 41.6688 18.8788 52.7589 32.5553 52.7588C46.2125 52.7589 56.5884 42.7269 57.3215 29.1515C57.3208 27.5711 57.1655 25.876 56.8565 24.3902C56.5312 22.826 55.9949 21.3167 55.2694 19.8946C55.2033 19.774 55.0957 19.6815 54.9666 19.6343C54.8374 19.5871 54.6955 19.5885 54.5673 19.6381C54.439 19.6878 54.3332 19.7824 54.2696 19.9043C54.2059 20.0261 54.1887 20.167 54.2211 20.3006C54.5909 21.7037 54.7662 23.1472 54.7452 24.5969C54.6837 28.8496 52.9496 32.3469 50.1611 34.8282C47.3733 37.3088 43.5109 38.7586 39.2137 38.7627C30.6136 38.7626 23.6676 31.8166 23.6675 23.2165C23.6676 14.6163 30.6146 7.66298 39.2137 7.66284C39.8876 7.66325 40.6343 7.83324 41.4209 8.08361C42.1808 8.32546 43.053 8.66927 43.8865 8.93252C44.8789 9.24597 45.8938 9.47249 46.9278 9.60427C47.0542 9.61948 47.1821 9.5917 47.2908 9.5254C47.3994 9.4591 47.4826 9.35815 47.527 9.2388C47.5713 9.11945 47.5742 8.98866 47.5351 8.86748C47.4961 8.74631 47.4174 8.64181 47.3117 8.57081C46.471 8.01624 45.6161 7.4818 44.7354 6.9837C41.1072 4.93164 36.9003 3.23642 32.5553 3.2337ZM32.5553 5.36707C33.7517 5.36782 34.9495 5.53247 36.1429 5.8026C27.8435 7.2587 21.5269 14.5021 21.5267 23.2165C21.5269 32.9789 29.4505 40.896 39.2137 40.8961C45.9166 40.8897 51.7929 37.6917 54.7821 32.4512C53.8658 37.247 51.579 41.387 48.3156 44.5059C44.3136 48.3306 38.8387 50.6181 32.5553 50.6181C20.0449 50.6181 9.92969 40.5029 9.92978 27.9926C9.92969 15.4822 20.0453 5.36698 32.5553 5.36707Z" fill="#060601" fill-opacity="0.15"/>
<path d="M32.541 3.61461C19.0802 3.61451 8.16531 14.5294 8.16541 27.9902C8.16531 41.4511 19.0802 52.366 32.541 52.3659C46.0019 52.366 56.9168 41.4511 56.9167 27.9899C56.9159 26.4279 56.765 24.7496 56.4606 23.3086C56.0494 21.362 55.286 19.5069 54.208 17.8346C54.8354 19.6355 55.1423 21.5325 55.1147 23.4394C54.9886 32.1509 47.9091 39.1355 39.1973 39.1439C30.3887 39.1438 23.2625 32.0176 23.2624 23.209C23.2625 14.4004 30.3887 7.27421 39.1969 7.27407C40.8577 7.27507 41.6682 7.38241 43.2422 7.87955C45.3514 8.54571 47.3769 9.45241 49.2787 10.5817C47.5933 9.07394 45.7505 7.75197 43.7821 6.63866C40.1359 4.57644 36.7428 3.61723 32.541 3.61461L32.5406 4.97524C36.5214 4.97772 39.636 5.8569 43.1122 7.82298L43.652 6.58209C41.9688 6.05047 40.9525 5.9145 39.1973 5.91344C29.644 5.91359 21.9019 13.6557 21.9017 23.209C21.9019 32.7623 29.644 40.5044 39.1979 40.5045C48.6476 40.4955 56.3384 32.9077 56.4752 23.4591L55.1293 23.5898C55.4095 24.916 55.5553 26.51 55.556 27.9902C55.5561 40.7092 45.26 51.0053 32.541 51.0052C19.8221 51.0053 9.52594 40.7092 9.52603 27.9902C9.52594 15.2713 19.8217 4.97515 32.5406 4.97524L32.541 3.61461Z" fill="#F2E4BE"/>
<path d="M39.9247 18.8375C39.6445 18.8375 39.3671 18.8926 39.1083 18.9998C38.8495 19.107 38.6143 19.2642 38.4162 19.4623C38.2181 19.6603 38.061 19.8955 37.9538 20.1543C37.8466 20.4132 37.7914 20.6906 37.7914 20.9707C37.7913 21.3162 37.875 21.6566 38.0355 21.9626C38.196 22.2685 38.4284 22.531 38.7127 22.7272H38.6757L38.0903 25.9414H41.7426L41.0506 22.7805C41.3584 22.5892 41.6124 22.3227 41.7887 22.006C41.9649 21.6894 42.0575 21.3331 42.0579 20.9707C42.0579 20.6906 42.0027 20.4132 41.8955 20.1543C41.7883 19.8955 41.6312 19.6603 41.4331 19.4623C41.235 19.2642 40.9999 19.107 40.741 18.9998C40.4822 18.8926 40.2048 18.8375 39.9247 18.8375Z" stroke="#050505" stroke-opacity="0.120141" stroke-width="1.995" stroke-linecap="round" stroke-linejoin="round"/>
<path d="M39.9759 18.8505C39.6958 18.8505 39.4184 18.9056 39.1596 19.0128C38.9007 19.12 38.6656 19.2771 38.4675 19.4752C38.2694 19.6733 38.1122 19.9085 38.005 20.1673C37.8979 20.4261 37.8427 20.7036 37.8427 20.9837C37.8425 21.3292 37.9263 21.6696 38.0868 21.9756C38.2472 22.2815 38.4796 22.5439 38.764 22.7402H38.7269L38.1416 25.9544H41.7939L41.1019 22.7935C41.4097 22.6022 41.6637 22.3357 41.8399 22.019C42.0162 21.7024 42.1088 21.3461 42.1091 20.9837C42.1092 20.7036 42.054 20.4261 41.9468 20.1673C41.8396 19.9085 41.6825 19.6733 41.4844 19.4752C41.2863 19.2771 41.0511 19.12 40.7923 19.0128C40.5335 18.9056 40.2561 18.8505 39.9759 18.8505Z" stroke="#F2E4BE" stroke-width="0.805002" stroke-linecap="round" stroke-linejoin="round"/>
<path d="M54.452 37.9138C53.7959 37.9497 53.0713 38.4453 52.7763 38.6298C52.1913 38.9953 51.8742 39.7178 51.7724 39.9807C51.7592 40.0148 51.7354 40.0693 51.7281 40.0915L51.6543 40.3351L51.9053 40.3645C51.9284 40.3671 51.9872 40.3698 52.0234 40.3721C52.3037 40.3872 53.0898 40.3986 53.6622 40.0399C53.9967 39.8306 54.3424 39.6497 54.489 39.597C54.5041 39.5917 54.5267 39.5796 54.5184 39.5823C54.512 39.5843 54.526 39.579 54.5407 39.5747L54.5483 39.5672L54.5188 39.2793L54.5705 39.4195L55.1828 38.1057L54.9983 38.0171C54.8451 37.9448 54.6835 37.9124 54.5185 37.9138C54.4973 37.914 54.4732 37.9126 54.452 37.9138Z" fill="black" fill-opacity="0.151365"/>
<path d="M41.1791 47.5893L40.7657 47.7296C40.7657 47.7296 40.7396 47.7775 40.6771 47.8477C40.5642 47.9743 40.3445 48.1752 40.057 48.394C39.3339 48.9442 38.148 49.6505 36.7721 50.2837C35.2485 50.9813 33.6733 51.5928 32.4758 52.0258C31.9968 52.1991 31.5792 52.3422 31.2504 52.454C30.7573 52.6217 30.759 52.6203 30.468 52.7124L30.5418 53.362C30.6175 53.3673 30.8186 53.3748 30.9478 53.3767C31.9769 53.3914 34.821 53.3001 37.5767 52.0258C39.3674 51.2017 42.0025 49.7015 42.5078 48.5047L42.6407 48.202L41.1791 47.5893Z" fill="black" fill-opacity="0.15"/>
<path d="M14.4692 48.9749C12.4154 47.4494 10.6759 45.5374 9.29733 43.4289C5.23356 37.2567 4.73259 29.9985 5.17527 24.8137C5.62107 19.5923 6.78108 16.4434 6.78108 16.4434C6.78108 16.4434 5.39957 19.5012 4.68644 24.7596C3.97993 29.9692 4.14102 37.3871 8.30725 44.0633C9.71791 46.3085 11.5387 48.3487 13.725 49.9758C20.1433 54.7477 28.4484 55.2535 35.3098 52.5848C40.893 50.4134 44.5493 46.7385 47.9989 43.7356C49.7271 42.2312 51.409 40.8901 53.2574 39.9433C55.1057 38.9965 57.1166 38.4336 59.5725 38.4801C60.4254 38.4959 61.4089 37.9935 61.4089 37.9935C61.4089 37.9935 60.5767 37.2518 59.5961 37.233C54.2512 37.1319 50.6994 39.7312 47.18 42.7948C43.6743 45.8465 40.1807 49.3521 34.8577 51.4224C28.359 53.9499 20.5107 53.4667 14.4692 48.9749Z" fill="#9791A0"/>
<path d="M55.5544 35.1077C54.9202 35.1153 54.0857 35.3548 53.6573 35.4768C53.038 35.6535 52.6192 36.266 52.4836 36.4881C52.4658 36.5172 52.4352 36.5712 52.4245 36.5915L52.299 36.8351L52.55 36.9605C52.57 36.9704 52.6225 36.9919 52.6533 37.0048C52.8844 37.1021 53.5702 37.3601 54.1445 37.1968C54.556 37.0795 55.0054 36.9699 55.3108 36.9236C55.4536 36.9021 55.5991 36.9024 55.643 36.9013L55.8497 36.8938L56.2483 35.2181L55.99 35.1516C55.8589 35.1206 55.7075 35.1059 55.5544 35.1077Z" fill="black" fill-opacity="0.15"/>
<path d="M43.3817 42.3772C40.5268 44.8459 38.2184 46.6157 35.6537 47.8204C33.3499 48.9027 31.5834 49.1286 31.5834 49.1286C31.5834 49.1286 33.3637 49.2221 35.8805 48.3915C38.5844 47.4991 41.3652 45.8097 44.2013 43.3174C47.0837 40.8045 49.9981 38.3001 54.6522 37.039C57.9133 36.1526 61.4376 35.5896 61.4376 35.5896C61.4376 35.5896 57.9011 34.8694 54.326 35.8352C49.3849 37.174 46.2742 39.8556 43.3817 42.3772Z" fill="#66769C"/>
<path d="M9.55756 51.3211C5.14192 46.1817 3.31772 39.8569 2.57323 34.6777C1.84204 29.5911 2.09409 26.1675 2.09409 26.1675C2.09409 26.1675 1.5199 29.5524 1.94806 34.7482C2.38231 40.018 3.98379 46.6783 8.6089 52.1308C14.3027 58.8014 22.5875 61.8169 30.7442 61.8128C49.3917 61.8033 57.6421 51.595 61.5753 39.5602C61.8039 38.861 61.411 37.9921 61.411 37.9921C61.411 37.9921 60.6086 38.5034 60.3898 39.1727C58.4804 45.0151 55.5551 50.3525 50.8872 54.2305C46.2193 58.1085 39.7934 60.5608 30.7436 60.5655C22.8964 60.5697 14.9825 57.6766 9.55756 51.3211Z" fill="#9791A0"/>
<path d="M42.011 54.581C35.2037 58.1135 27.7957 57.6153 22.2069 55.9824C16.7036 54.3745 13.5558 52.0554 13.5558 52.0554C13.5558 52.0554 16.4974 54.637 22.0161 56.5753C27.5981 58.5358 35.3252 59.3783 42.5807 55.6906C42.8051 55.5754 43.0298 55.4569 43.2549 55.3351C46.5484 53.5528 49.6956 49.7002 53.0625 46.06C55.3485 43.5885 57.7992 41.1342 60.5584 39.2706C61.118 38.8927 61.4039 37.9957 61.4039 37.9957C61.4039 37.9957 60.4739 37.8225 59.8603 38.237C55.551 41.1477 52.0076 45.4105 48.8189 48.8598C46.6764 51.1774 44.6511 53.1613 42.6612 54.2382C42.444 54.3557 42.2273 54.47 42.011 54.581Z" fill="#9791A0"/>
</g>
<defs>
<clipPath id="clip0_1_2">
<rect width="64" height="64" fill="white"/>
</clipPath>
</defs>
</svg>
